<svg width="55" height="38" viewBox="0 0 55 38" fill="none" xmlns="http://www.w3.org/2000/svg">
<path d="M27.5 30C30.625 30 33.2812 28.9062 35.4688 26.7188C37.6562 24.5312 38.75 21.875 38.75 18.75C38.75 15.625 37.6562 12.9688 35.4688 10.7812C33.2812 8.59375 30.625 7.5 27.5 7.5C24.375 7.5 21.7188 8.59375 19.5312 10.7812C17.3438 12.9688 16.25 15.625 16.25 18.75C16.25 21.875 17.3438 24.5312 19.5312 26.7188C21.7188 28.9062 24.375 30 27.5 30ZM27.5 25.5C25.625 25.5 24.0312 24.8438 22.7188 23.5312C21.4062 22.2188 20.75 20.625 20.75 18.75C20.75 16.875 21.4062 15.2812 22.7188 13.9688C24.0312 12.6562 25.625 12 27.5 12C29.375 12 30.9688 12.6562 32.2812 13.9688C33.5938 15.2812 34.25 16.875 34.25 18.75C34.25 20.625 33.5938 22.2188 32.2812 23.5312C30.9688 24.8438 29.375 25.5 27.5 25.5ZM27.5 37.5C21.4167 37.5 15.875 35.8021 10.875 32.4062C5.875 29.0104 2.25 24.4583 0 18.75C2.25 13.0417 5.875 8.48958 10.875 5.09375C15.875 1.69792 21.4167 0 27.5 0C33.5833 0 39.125 1.69792 44.125 5.09375C49.125 8.48958 52.75 13.0417 55 18.75C52.75 24.4583 49.125 29.0104 44.125 32.4062C39.125 35.8021 33.5833 37.5 27.5 37.5ZM27.5 32.5C32.2083 32.5 36.5312 31.2604 40.4688 28.7812C44.4062 26.3021 47.4167 22.9583 49.5 18.75C47.4167 14.5417 44.4062 11.1979 40.4688 8.71875C36.5312 6.23958 32.2083 5 27.5 5C22.7917 5 18.4688 6.23958 14.5312 8.71875C10.5938 11.1979 7.58333 14.5417 5.5 18.75C7.58333 22.9583 10.5938 26.3021 14.5312 28.7812C18.4688 31.2604 22.7917 32.5 27.5 32.5Z" fill="#D4346B"/>
</svg>
