<svg width="38" height="38" viewBox="0 0 38 38" fill="none" xmlns="http://www.w3.org/2000/svg">
<rect width="38" height="38" rx="8" fill="#B21553" fill-opacity="0.1"/>
<path d="M26 16L24.75 13.25L22 12L24.75 10.75L26 8L27.25 10.75L30 12L27.25 13.25L26 16ZM26 30L24.75 27.25L22 26L24.75 24.75L26 22L27.25 24.75L30 26L27.25 27.25L26 30ZM16 27L13.5 21.5L8 19L13.5 16.5L16 11L18.5 16.5L24 19L18.5 21.5L16 27ZM16 22.15L17 20L19.15 19L17 18L16 15.85L15 18L12.85 19L15 20L16 22.15Z" fill="#B21553"/>
</svg>
