<svg width="48" height="48" viewBox="0 0 48 48" fill="none" xmlns="http://www.w3.org/2000/svg">
<rect width="48" height="48" rx="24" fill="#A7EBF6"/>
<path d="M27 32H20C19.45 32 18.9792 31.8042 18.5875 31.4125C18.1958 31.0208 18 30.55 18 30V19H20V30H27V32ZM23.5 18C22.95 18 22.4792 17.8042 22.0875 17.4125C21.6958 17.0208 21.5 16.55 21.5 16C21.5 15.45 21.6958 14.9792 22.0875 14.5875C22.4792 14.1958 22.95 14 23.5 14C24.05 14 24.5208 14.1958 24.9125 14.5875C25.3042 14.9792 25.5 15.45 25.5 16C25.5 16.55 25.3042 17.0208 24.9125 17.4125C24.5208 17.8042 24.05 18 23.5 18ZM28 34V29H23C22.45 29 21.9792 28.8042 21.5875 28.4125C21.1958 28.0208 21 27.55 21 27V21.5C21 20.8 21.2417 20.2083 21.725 19.725C22.2083 19.2417 22.8 19 23.5 19C24.2 19 24.7917 19.2417 25.275 19.725C25.7583 20.2083 26 20.8 26 21.5V26H28C28.55 26 29.0208 26.1958 29.4125 26.5875C29.8042 26.9792 30 27.45 30 28V34H28Z" fill="#1C6772"/>
</svg>
