<svg width="34" height="34" viewBox="0 0 34 34" fill="none" xmlns="http://www.w3.org/2000/svg">
<rect width="34" height="34" rx="8" fill="#B21553" fill-opacity="0.1"/>
<path d="M12 26V24H16V20.9C15.1833 20.7167 14.4542 20.3708 13.8125 19.8625C13.1708 19.3542 12.7 18.7167 12.4 17.95C11.15 17.8 10.1042 17.2542 9.2625 16.3125C8.42083 15.3708 8 14.2667 8 13V12C8 11.45 8.19583 10.9792 8.5875 10.5875C8.97917 10.1958 9.45 10 10 10H12V8H22V10H24C24.55 10 25.0208 10.1958 25.4125 10.5875C25.8042 10.9792 26 11.45 26 12V13C26 14.2667 25.5792 15.3708 24.7375 16.3125C23.8958 17.2542 22.85 17.8 21.6 17.95C21.3 18.7167 20.8292 19.3542 20.1875 19.8625C19.5458 20.3708 18.8167 20.7167 18 20.9V24H22V26H12ZM12 15.8V12H10V13C10 13.6333 10.1833 14.2042 10.55 14.7125C10.9167 15.2208 11.4 15.5833 12 15.8ZM17 19C17.8333 19 18.5417 18.7083 19.125 18.125C19.7083 17.5417 20 16.8333 20 16V10H14V16C14 16.8333 14.2917 17.5417 14.875 18.125C15.4583 18.7083 16.1667 19 17 19ZM22 15.8C22.6 15.5833 23.0833 15.2208 23.45 14.7125C23.8167 14.2042 24 13.6333 24 13V12H22V15.8Z" fill="#B21553"/>
</svg>
