<svg width="56" height="56" viewBox="0 0 56 56" fill="none" xmlns="http://www.w3.org/2000/svg">
<rect width="56" height="56" rx="16" fill="#B21553" fill-opacity="0.1"/>
<path d="M33 31.75C31.9583 31.75 31.0729 31.3854 30.3438 30.6562C29.6146 29.9271 29.25 29.0417 29.25 28C29.25 26.9583 29.6146 26.0729 30.3438 25.3438C31.0729 24.6146 31.9583 24.25 33 24.25C34.0417 24.25 34.9271 24.6146 35.6562 25.3438C36.3854 26.0729 36.75 26.9583 36.75 28C36.75 29.0417 36.3854 29.9271 35.6562 30.6562C34.9271 31.3854 34.0417 31.75 33 31.75ZM33 29.25C33.3542 29.25 33.651 29.1302 33.8906 28.8906C34.1302 28.651 34.25 28.3542 34.25 28C34.25 27.6458 34.1302 27.349 33.8906 27.1094C33.651 26.8698 33.3542 26.75 33 26.75C32.6458 26.75 32.349 26.8698 32.1094 27.1094C31.8698 27.349 31.75 27.6458 31.75 28C31.75 28.3542 31.8698 28.651 32.1094 28.8906C32.349 29.1302 32.6458 29.25 33 29.25ZM25.5 40.5V36.875C25.5 36.4375 25.6042 36.026 25.8125 35.6406C26.0208 35.2552 26.3125 34.9479 26.6875 34.7188C27.3542 34.3229 28.0573 33.9948 28.7969 33.7344C29.5365 33.474 30.2917 33.2812 31.0625 33.1562L33 35.5L34.9375 33.1562C35.7083 33.2812 36.4583 33.474 37.1875 33.7344C37.9167 33.9948 38.6146 34.3229 39.2812 34.7188C39.6562 34.9479 39.9531 35.2552 40.1719 35.6406C40.3906 36.026 40.5 36.4375 40.5 36.875V40.5H25.5ZM27.9688 38H31.8125L30.125 35.9375C29.75 36.0417 29.3854 36.1771 29.0312 36.3438C28.6771 36.5104 28.3229 36.6875 27.9688 36.875V38ZM34.1875 38H38V36.875C37.6667 36.6667 37.3229 36.4844 36.9688 36.3281C36.6146 36.1719 36.25 36.0417 35.875 35.9375L34.1875 38ZM18 38C17.3125 38 16.724 37.7552 16.2344 37.2656C15.7448 36.776 15.5 36.1875 15.5 35.5V18C15.5 17.3125 15.7448 16.724 16.2344 16.2344C16.724 15.7448 17.3125 15.5 18 15.5H35.5C36.1875 15.5 36.776 15.7448 37.2656 16.2344C37.7552 16.724 38 17.3125 38 18V24.25C37.6667 23.8333 37.3021 23.4375 36.9062 23.0625C36.5104 22.6875 36.0417 22.4375 35.5 22.3125V18H18V35.5H23.1875C23.125 35.7292 23.0781 35.9583 23.0469 36.1875C23.0156 36.4167 23 36.6458 23 36.875V38H18ZM20.5 23H29.25C29.7917 22.5833 30.3854 22.2708 31.0312 22.0625C31.6771 21.8542 32.3333 21.75 33 21.75V20.5H20.5V23ZM20.5 28H26.75C26.75 27.5625 26.7969 27.1354 26.8906 26.7188C26.9844 26.3021 27.1146 25.8958 27.2812 25.5H20.5V28ZM20.5 33H24.8125C25.0417 32.8125 25.2865 32.6458 25.5469 32.5C25.8073 32.3542 26.0729 32.2188 26.3438 32.0938V30.5H20.5V33ZM18 35.5V18V22.2812C18 22.1146 18 21.9844 18 21.8906C18 21.7969 18 21.75 18 21.75C18 21.75 18 22.3594 18 23.5781C18 24.7969 18 26.2708 18 28C18 28.5833 18 29.1667 18 29.75C18 30.3333 18 30.9167 18 31.5C18 31.6667 18 31.8438 18 32.0312C18 32.2188 18 32.3958 18 32.5625C18 33.0417 18 33.5312 18 34.0312C18 34.5312 18 35.0208 18 35.5Z" fill="#B21553"/>
</svg>
