<svg width="56" height="56" viewBox="0 0 56 56" fill="none" xmlns="http://www.w3.org/2000/svg">
<rect width="56" height="56" rx="16" fill="#1C6772" fill-opacity="0.1"/>
<path d="M19.25 40.5C18.5625 40.5 17.974 40.2552 17.4844 39.7656C16.9948 39.276 16.75 38.6875 16.75 38V20.5C16.75 19.8125 16.9948 19.224 17.4844 18.7344C17.974 18.2448 18.5625 18 19.25 18H24.5C24.7917 17.25 25.25 16.6458 25.875 16.1875C26.5 15.7292 27.2083 15.5 28 15.5C28.7917 15.5 29.5 15.7292 30.125 16.1875C30.75 16.6458 31.2083 17.25 31.5 18H36.75C37.4375 18 38.026 18.2448 38.5156 18.7344C39.0052 19.224 39.25 19.8125 39.25 20.5V38C39.25 38.6875 39.0052 39.276 38.5156 39.7656C38.026 40.2552 37.4375 40.5 36.75 40.5H19.25ZM28 19.5625C28.2708 19.5625 28.4948 19.474 28.6719 19.2969C28.849 19.1198 28.9375 18.8958 28.9375 18.625C28.9375 18.3542 28.849 18.1302 28.6719 17.9531C28.4948 17.776 28.2708 17.6875 28 17.6875C27.7292 17.6875 27.5052 17.776 27.3281 17.9531C27.151 18.1302 27.0625 18.3542 27.0625 18.625C27.0625 18.8958 27.151 19.1198 27.3281 19.2969C27.5052 19.474 27.7292 19.5625 28 19.5625ZM19.25 36.5625C20.375 35.4583 21.6823 34.5885 23.1719 33.9531C24.6615 33.3177 26.2708 33 28 33C29.7292 33 31.3385 33.3177 32.8281 33.9531C34.3177 34.5885 35.625 35.4583 36.75 36.5625V20.5H19.25V36.5625ZM28 30.5C29.2083 30.5 30.2396 30.0729 31.0938 29.2188C31.9479 28.3646 32.375 27.3333 32.375 26.125C32.375 24.9167 31.9479 23.8854 31.0938 23.0312C30.2396 22.1771 29.2083 21.75 28 21.75C26.7917 21.75 25.7604 22.1771 24.9062 23.0312C24.0521 23.8854 23.625 24.9167 23.625 26.125C23.625 27.3333 24.0521 28.3646 24.9062 29.2188C25.7604 30.0729 26.7917 30.5 28 30.5ZM21.75 38H34.25C34.25 37.9375 34.25 37.8854 34.25 37.8438C34.25 37.8021 34.25 37.75 34.25 37.6875C33.375 36.9583 32.4062 36.4115 31.3438 36.0469C30.2812 35.6823 29.1667 35.5 28 35.5C26.8333 35.5 25.7188 35.6823 24.6562 36.0469C23.5938 36.4115 22.625 36.9583 21.75 37.6875C21.75 37.75 21.75 37.8021 21.75 37.8438C21.75 37.8854 21.75 37.9375 21.75 38ZM28 28C27.4792 28 27.0365 27.8177 26.6719 27.4531C26.3073 27.0885 26.125 26.6458 26.125 26.125C26.125 25.6042 26.3073 25.1615 26.6719 24.7969C27.0365 24.4323 27.4792 24.25 28 24.25C28.5208 24.25 28.9635 24.4323 29.3281 24.7969C29.6927 25.1615 29.875 25.6042 29.875 26.125C29.875 26.6458 29.6927 27.0885 29.3281 27.4531C28.9635 27.8177 28.5208 28 28 28Z" fill="#1C6772"/>
</svg>
