<svg width="48" height="49" viewBox="0 0 48 49" fill="none" xmlns="http://www.w3.org/2000/svg">
<rect width="47.7647" height="49" rx="23.8824" fill="#B21553" fill-opacity="0.2"/>
<path d="M15.75 37V31.625C14.5625 30.5417 13.6406 29.276 12.9844 27.8281C12.3281 26.3802 12 24.8542 12 23.25C12 20.125 13.0938 17.4688 15.2812 15.2812C17.4688 13.0938 20.125 12 23.25 12C25.8542 12 28.1615 12.7656 30.1719 14.2969C32.1823 15.8281 33.4896 17.8229 34.0938 20.2812L35.7188 26.6875C35.8229 27.0833 35.75 27.4427 35.5 27.7656C35.25 28.0885 34.9167 28.25 34.5 28.25H32V32C32 32.6875 31.7552 33.276 31.2656 33.7656C30.776 34.2552 30.1875 34.5 29.5 34.5H27V37H24.5V32H29.5V25.75H32.875L31.6875 20.9062C31.2083 19.0104 30.1875 17.4688 28.625 16.2812C27.0625 15.0938 25.2708 14.5 23.25 14.5C20.8333 14.5 18.7708 15.3438 17.0625 17.0312C15.3542 18.7188 14.5 20.7708 14.5 23.1875C14.5 24.4375 14.7552 25.625 15.2656 26.75C15.776 27.875 16.5 28.875 17.4375 29.75L18.25 30.5V37H15.75ZM23.25 29.5C23.6042 29.5 23.901 29.3802 24.1406 29.1406C24.3802 28.901 24.5 28.6042 24.5 28.25C24.5 27.8958 24.3802 27.599 24.1406 27.3594C23.901 27.1198 23.6042 27 23.25 27C22.8958 27 22.599 27.1198 22.3594 27.3594C22.1198 27.599 22 27.8958 22 28.25C22 28.6042 22.1198 28.901 22.3594 29.1406C22.599 29.3802 22.8958 29.5 23.25 29.5ZM22.3125 25.5H24.2188C24.2188 24.9792 24.2865 24.5573 24.4219 24.2344C24.5573 23.9115 24.8333 23.5208 25.25 23.0625C25.625 22.6458 25.9896 22.224 26.3438 21.7969C26.6979 21.3698 26.875 20.8125 26.875 20.125C26.875 19.25 26.5365 18.5104 25.8594 17.9062C25.1823 17.3021 24.3438 17 23.3438 17C22.5104 17 21.7552 17.2396 21.0781 17.7188C20.401 18.1979 19.9271 18.8229 19.6562 19.5938L21.375 20.3125C21.5208 19.8542 21.776 19.4844 22.1406 19.2031C22.5052 18.9219 22.9062 18.7812 23.3438 18.7812C23.8021 18.7812 24.1823 18.9062 24.4844 19.1562C24.7865 19.4062 24.9375 19.7292 24.9375 20.125C24.9375 20.5625 24.8073 20.9531 24.5469 21.2969C24.2865 21.6406 23.9792 21.9896 23.625 22.3438C23.2083 22.7812 22.8854 23.2188 22.6562 23.6562C22.4271 24.0938 22.3125 24.7083 22.3125 25.5Z" fill="#F472B6"/>
</svg>
