<svg width="47" height="47" viewBox="0 0 47 47" fill="none" xmlns="http://www.w3.org/2000/svg">
<rect width="46.5" height="46.5" rx="23.25" fill="#B21553" fill-opacity="0.2"/>
<path d="M17 29.5H19.5V23.25H17V29.5ZM27 29.5H29.5V17H27V29.5ZM22 29.5H24.5V25.75H22V29.5ZM22 23.25H24.5V20.75H22V23.25ZM14.5 34.5C13.8125 34.5 13.224 34.2552 12.7344 33.7656C12.2448 33.276 12 32.6875 12 32V14.5C12 13.8125 12.2448 13.224 12.7344 12.7344C13.224 12.2448 13.8125 12 14.5 12H32C32.6875 12 33.276 12.2448 33.7656 12.7344C34.2552 13.224 34.5 13.8125 34.5 14.5V32C34.5 32.6875 34.2552 33.276 33.7656 33.7656C33.276 34.2552 32.6875 34.5 32 34.5H14.5ZM14.5 32H32V14.5H14.5V32ZM14.5 14.5V32V14.5Z" fill="#F472B6"/>
</svg>
