<svg width="47" height="49" viewBox="0 0 47 49" fill="none" xmlns="http://www.w3.org/2000/svg">
<rect width="46.5" height="49" rx="23.25" fill="#B21553" fill-opacity="0.2"/>
<path d="M14.5 37C13.8125 37 13.224 36.7552 12.7344 36.2656C12.2448 35.776 12 35.1875 12 34.5V17C12 16.3125 12.2448 15.724 12.7344 15.2344C13.224 14.7448 13.8125 14.5 14.5 14.5H19.75C20.0417 13.75 20.5 13.1458 21.125 12.6875C21.75 12.2292 22.4583 12 23.25 12C24.0417 12 24.75 12.2292 25.375 12.6875C26 13.1458 26.4583 13.75 26.75 14.5H32C32.6875 14.5 33.276 14.7448 33.7656 15.2344C34.2552 15.724 34.5 16.3125 34.5 17V34.5C34.5 35.1875 34.2552 35.776 33.7656 36.2656C33.276 36.7552 32.6875 37 32 37H14.5ZM23.25 16.0625C23.5208 16.0625 23.7448 15.974 23.9219 15.7969C24.099 15.6198 24.1875 15.3958 24.1875 15.125C24.1875 14.8542 24.099 14.6302 23.9219 14.4531C23.7448 14.276 23.5208 14.1875 23.25 14.1875C22.9792 14.1875 22.7552 14.276 22.5781 14.4531C22.401 14.6302 22.3125 14.8542 22.3125 15.125C22.3125 15.3958 22.401 15.6198 22.5781 15.7969C22.7552 15.974 22.9792 16.0625 23.25 16.0625ZM14.5 33.0625C15.625 31.9583 16.9323 31.0885 18.4219 30.4531C19.9115 29.8177 21.5208 29.5 23.25 29.5C24.9792 29.5 26.5885 29.8177 28.0781 30.4531C29.5677 31.0885 30.875 31.9583 32 33.0625V17H14.5V33.0625ZM23.25 27C24.4583 27 25.4896 26.5729 26.3438 25.7188C27.1979 24.8646 27.625 23.8333 27.625 22.625C27.625 21.4167 27.1979 20.3854 26.3438 19.5312C25.4896 18.6771 24.4583 18.25 23.25 18.25C22.0417 18.25 21.0104 18.6771 20.1562 19.5312C19.3021 20.3854 18.875 21.4167 18.875 22.625C18.875 23.8333 19.3021 24.8646 20.1562 25.7188C21.0104 26.5729 22.0417 27 23.25 27ZM17 34.5H29.5C29.5 34.4375 29.5 34.3854 29.5 34.3438C29.5 34.3021 29.5 34.25 29.5 34.1875C28.625 33.4583 27.6562 32.9115 26.5938 32.5469C25.5312 32.1823 24.4167 32 23.25 32C22.0833 32 20.9688 32.1823 19.9062 32.5469C18.8438 32.9115 17.875 33.4583 17 34.1875C17 34.25 17 34.3021 17 34.3438C17 34.3854 17 34.4375 17 34.5ZM23.25 24.5C22.7292 24.5 22.2865 24.3177 21.9219 23.9531C21.5573 23.5885 21.375 23.1458 21.375 22.625C21.375 22.1042 21.5573 21.6615 21.9219 21.2969C22.2865 20.9323 22.7292 20.75 23.25 20.75C23.7708 20.75 24.2135 20.9323 24.5781 21.2969C24.9427 21.6615 25.125 22.1042 25.125 22.625C25.125 23.1458 24.9427 23.5885 24.5781 23.9531C24.2135 24.3177 23.7708 24.5 23.25 24.5Z" fill="#F472B6"/>
</svg>
