<svg width="41" height="40" viewBox="0 0 41 40" fill="none" xmlns="http://www.w3.org/2000/svg">
<path d="M32 14L30.4 15.4C29.9333 15.8333 29.3833 16.05 28.75 16.05C28.1167 16.05 27.5667 15.8667 27.1 15.5C26.6333 15.1333 26.3167 14.6667 26.15 14.1C25.9833 13.5333 26 12.9333 26.2 12.3L27 9.8L25.3 8.8C24.7667 8.5 24.3917 8.06667 24.175 7.5C23.9583 6.93333 23.9333 6.36667 24.1 5.8C24.2667 5.23333 24.6 4.79167 25.1 4.475C25.6 4.15833 26.1667 4 26.8 4H28.8L29.4 2.1C29.6 1.46667 29.9417 0.958333 30.425 0.575C30.9083 0.191667 31.4333 0 32 0C32.5667 0 33.0917 0.191667 33.575 0.575C34.0583 0.958333 34.4 1.46667 34.6 2.1L35.2 4H37.2C37.8333 4 38.3917 4.15833 38.875 4.475C39.3583 4.79167 39.7 5.23333 39.9 5.8C40.1333 6.4 40.1333 6.98333 39.9 7.55C39.6667 8.11667 39.3 8.53333 38.8 8.8L37 9.8L37.8 12.3C38 12.9333 38.0167 13.5417 37.85 14.125C37.6833 14.7083 37.3667 15.1667 36.9 15.5C36.4 15.8667 35.8417 16.05 35.225 16.05C34.6083 16.05 34.0667 15.8333 33.6 15.4L32 14ZM32 10C32.5667 10 33.0417 9.80833 33.425 9.425C33.8083 9.04167 34 8.56667 34 8C34 7.43333 33.8083 6.95833 33.425 6.575C33.0417 6.19167 32.5667 6 32 6C31.4333 6 30.9583 6.19167 30.575 6.575C30.1917 6.95833 30 7.43333 30 8C30 8.56667 30.1917 9.04167 30.575 9.425C30.9583 9.80833 31.4333 10 32 10ZM23.6 31.8C24.3667 33.8 24.1167 35.6667 22.85 37.4C21.5833 39.1333 19.8 40 17.5 40C16.4 40 15.3583 39.7167 14.375 39.15C13.3917 38.5833 12.6667 37.8333 12.2 36.9C9.43333 37.3 7.14167 36.5917 5.325 34.775C3.50833 32.9583 2.76667 30.6333 3.1 27.8C2.1 27.2333 1.33333 26.4583 0.8 25.475C0.266667 24.4917 0 23.3667 0 22.1C0 20.0667 0.925 18.425 2.775 17.175C4.625 15.925 6.43333 15.6667 8.2 16.4L11.3 17.7C11.9667 16.6667 12.85 15.825 13.95 15.175C15.05 14.525 16.2333 14.1667 17.5 14.1V10H20.5V14.5C21.7333 14.8667 22.75 15.4417 23.55 16.225C24.35 17.0083 25.0333 18.1 25.6 19.5H30V22.5H25.9C25.8333 23.7667 25.4917 24.95 24.875 26.05C24.2583 27.15 23.4333 28.0333 22.4 28.7L23.6 31.8ZM7.5 24.8C8.56667 24.8 9.50833 24.6667 10.325 24.4C11.1417 24.1333 12.2 23.6 13.5 22.8L7.5 20.3C6.53333 19.9 5.70833 19.9083 5.025 20.325C4.34167 20.7417 4 21.4 4 22.3C4 23.1667 4.28333 23.8 4.85 24.2C5.41667 24.6 6.3 24.8 7.5 24.8ZM17.5 36C18.3333 36 19.0083 35.7083 19.525 35.125C20.0417 34.5417 20.1667 33.9333 19.9 33.3L17.2 26.5C16.5667 27.5667 16.075 28.6333 15.725 29.7C15.375 30.7667 15.2 31.7333 15.2 32.6C15.2 33.7 15.3917 34.5417 15.775 35.125C16.1583 35.7083 16.7333 36 17.5 36ZM20.8 24.9C21.1333 24.5667 21.4 24.125 21.6 23.575C21.8 23.025 21.9 22.45 21.9 21.85C21.9 20.7833 21.55 19.8833 20.85 19.15C20.15 18.4167 19.2833 18.05 18.25 18.05C17.65 18.05 17.0833 18.15 16.55 18.35C16.0167 18.55 15.5667 18.8333 15.2 19.2L19.1 21L20.8 24.9Z" fill="#B21553"/>
</svg>
