<svg width="32" height="43" viewBox="0 0 32 43" fill="none" xmlns="http://www.w3.org/2000/svg">
<path d="M20 43V31L15.8 27L13.8 35.8L0 33L0.8 29L10.4 31L13.6 14.8L10 16.2V23H6V13.6L13.9 10.2C15.0667 9.7 15.925 9.375 16.475 9.225C17.025 9.075 17.5333 9 18 9C18.7 9 19.35 9.18333 19.95 9.55C20.55 9.91667 21.0333 10.4 21.4 11L23.4 14.2C24.2667 15.6 25.4417 16.75 26.925 17.65C28.4083 18.55 30.1 19 32 19V23C29.8 23 27.7417 22.5417 25.825 21.625C23.9083 20.7083 22.3 19.5 21 18L19.8 24L24 28V43H20ZM21 8C19.9 8 18.9583 7.60833 18.175 6.825C17.3917 6.04167 17 5.1 17 4C17 2.9 17.3917 1.95833 18.175 1.175C18.9583 0.391667 19.9 0 21 0C22.1 0 23.0417 0.391667 23.825 1.175C24.6083 1.95833 25 2.9 25 4C25 5.1 24.6083 6.04167 23.825 6.825C23.0417 7.60833 22.1 8 21 8Z" fill="#1C6772"/>
</svg>
